PathFileType	4	(X/Y/Z)	S:\OneDrive - The University of Tokyo\ìåëÂéˆã∆\ÉoÉCÉÅÉJ\ë™íË\hirabayashi_2\Trimmed\Trimmed_BarR40kg1.trc
DataRate	CameraRate	NumFrames	NumMarkers	Units	OrigDataRate	OrigDataStartFrame	OrigNumFrames
200.00	200.00	       22	12	mm	200.00	110	       293
Frame#	Time	BarR0			BarR50			BarR100			BarR130			BarR180			BarR230			BarL0			BarL50			BarL100			BarL130			BarL180			BarL230			
		X1	Y1	Z1	X2	Y2	Z2	X3	Y3	Z3	X4	Y4	Z4	X5	Y5	Z5	X6	Y6	Z6	X7	Y7	Z7	X8	Y8	Z8	X9	Y9	Z9	X10	Y10	Z10	X11	Y11	Z11	X12	Y12	Z12	

110	0.545	-576.49506	2754.31689	1664.19495	-603.64087	2305.07373	1653.43701	-637.42999	1851.40845	1646.80713	-660.78308	1349.62585	1646.74146	-689.72467	903.01855	1653.55188	-713.83063	455.35715	1663.99841	-1113.53845	2808.15698	1664.69360	-1140.71008	2356.49927	1667.86267	-1171.18372	1906.06311	1668.75586	-1198.98120	1404.26392	1669.13391	-1226.75635	952.64307	1668.30945	-1244.52332	506.38968	1667.64294	
111	0.550	-576.49701	2754.31812	1664.18616	-603.62122	2305.09229	1653.44055	-637.39038	1851.40161	1646.81897	-660.77478	1349.62170	1646.73596	-689.73505	903.01599	1653.56128	-713.84857	455.36008	1663.98230	-1113.55701	2808.14404	1664.69226	-1140.69604	2356.49780	1667.87378	-1171.18945	1906.07214	1668.75842	-1198.98413	1404.26733	1669.14417	-1226.76172	952.62512	1668.31201	-1244.53308	506.42166	1667.64893	
112	0.555	-576.49194	2754.32324	1664.19214	-603.60858	2305.06299	1653.45532	-637.39606	1851.40967	1646.81018	-660.76239	1349.60864	1646.73291	-689.73828	903.01001	1653.57776	-713.84320	455.34909	1663.98560	-1113.55566	2808.15894	1664.67798	-1140.70508	2356.47681	1667.87622	-1171.15979	1906.05554	1668.76611	-1198.97791	1404.28857	1669.14539	-1226.75842	952.63879	1668.32214	-1244.51099	506.39072	1667.64929	
113	0.560	-576.51654	2754.33008	1664.19092	-603.62714	2305.08667	1653.44873	-637.40656	1851.37476	1646.84351	-660.77039	1349.62793	1646.73157	-689.72485	903.01440	1653.57251	-713.84265	455.33725	1663.98608	-1113.54810	2808.18823	1664.69836	-1140.70483	2356.46826	1667.87036	-1171.19373	1906.05603	1668.75964	-1198.96680	1404.26147	1669.16064	-1226.75110	952.65906	1668.32776	-1244.52051	506.40735	1667.65857	
114	0.565	-576.51001	2754.30762	1664.18372	-603.59326	2305.06226	1653.45605	-637.40564	1851.39282	1646.81311	-660.77557	1349.64893	1646.73840	-689.71741	903.02155	1653.55957	-713.82886	455.35629	1663.98865	-1113.55176	2808.16113	1664.67664	-1140.70264	2356.48218	1667.87769	-1171.17920	1906.05115	1668.77234	-1198.96533	1404.27185	1669.14832	-1226.74512	952.64185	1668.33411	-1244.51355	506.38782	1667.66150	
115	0.570	-576.48486	2754.30518	1664.19067	-603.61847	2305.07275	1653.44678	-637.42841	1851.39099	1646.81152	-660.77655	1349.62000	1646.72583	-689.73352	903.02618	1653.54077	-713.83807	455.35016	1663.99365	-1113.54309	2808.17285	1664.69153	-1140.70129	2356.48560	1667.88928	-1171.18604	1906.06738	1668.75891	-1198.96704	1404.27844	1669.14807	-1226.75354	952.64301	1668.31921	-1244.52405	506.38745	1667.65503	
116	0.575	-576.49878	2754.31958	1664.20276	-603.57825	2305.05420	1653.46057	-637.41187	1851.41858	1646.82166	-660.78387	1349.62732	1646.74097	-689.73236	903.00476	1653.55774	-713.82550	455.34106	1663.99036	-1113.55530	2808.17432	1664.69592	-1140.69934	2356.47681	1667.87573	-1171.19275	1906.06055	1668.77112	-1198.96497	1404.28955	1669.14404	-1226.73206	952.66327	1668.32385	-1244.50793	506.38547	1667.65381	
117	0.580	-576.47723	2754.31616	1664.18079	-603.62311	2305.06714	1653.44385	-637.37524	1851.40442	1646.79871	-660.76074	1349.60840	1646.73279	-689.73657	903.01959	1653.56091	-713.84869	455.37189	1663.99353	-1113.54321	2808.14136	1664.68237	-1140.70203	2356.47949	1667.86194	-1171.18188	1906.04871	1668.76001	-1198.97058	1404.28149	1669.16577	-1226.74109	952.65344	1668.32300	-1244.52502	506.41815	1667.65662	
118	0.585	-576.50378	2754.30981	1664.18970	-603.59656	2305.06104	1653.43506	-637.40808	1851.41272	1646.82422	-660.77454	1349.64221	1646.73474	-689.74030	903.01123	1653.56189	-713.83649	455.35419	1663.99524	-1113.51563	2808.17554	1664.69177	-1140.70972	2356.49829	1667.88965	-1171.17041	1906.04443	1668.76709	-1198.96863	1404.27356	1669.15894	-1226.75220	952.64880	1668.32129	-1244.52087	506.39694	1667.64941	
119	0.590	-576.47882	2754.28857	1664.19800	-603.62946	2305.07446	1653.42896	-637.42267	1851.40515	1646.81616	-660.76758	1349.64624	1646.72803	-689.73608	903.01501	1653.56360	-713.82965	455.34659	1663.99451	-1113.53174	2808.17871	1664.69336	-1140.70776	2356.48193	1667.88184	-1171.17395	1906.06116	1668.75879	-1198.97290	1404.25867	1669.15332	-1226.74976	952.64655	1668.31702	-1244.54944	506.41040	1667.64636	
120	0.595	-576.49054	2754.31396	1664.18335	-603.60669	2305.08813	1653.45178	-637.39044	1851.40210	1646.83362	-660.76715	1349.63623	1646.74329	-689.73602	903.02936	1653.54785	-713.83868	455.35486	1663.98474	-1113.56519	2808.18359	1664.67615	-1140.69751	2356.46094	1667.87048	-1171.17261	1906.05957	1668.76538	-1198.96960	1404.28760	1669.15784	-1226.73999	952.65393	1668.31665	-1244.51965	506.41113	1667.64966	
121	0.600	-576.49261	2754.29712	1664.17920	-603.62042	2305.06519	1653.45630	-637.38708	1851.39685	1646.80994	-660.77802	1349.63562	1646.71875	-689.71796	903.01843	1653.54895	-713.81781	455.35794	1663.98596	-1113.51636	2808.20850	1664.69141	-1140.70557	2356.47266	1667.87683	-1171.19470	1906.04749	1668.76111	-1198.96069	1404.29407	1669.19238	-1226.75330	952.62756	1668.32019	-1244.52234	506.41385	1667.64063	
122	0.605	-576.48926	2754.28857	1664.17822	-603.59814	2305.09180	1653.45068	-637.40875	1851.38953	1646.80933	-660.78473	1349.63635	1646.72412	-689.72491	903.02161	1653.56616	-713.84265	455.34293	1663.98486	-1113.53735	2808.16626	1664.68567	-1140.69165	2356.48291	1667.86609	-1171.20398	1906.05615	1668.76355	-1198.95190	1404.28271	1669.18823	-1226.74561	952.65411	1668.33801	-1244.53198	506.41330	1667.63452	
123	0.610	-576.48511	2754.29199	1664.18701	-603.62463	2305.07397	1653.42908	-637.42542	1851.41284	1646.81836	-660.74585	1349.62183	1646.73230	-689.73169	903.02197	1653.56750	-713.84039	455.34195	1664.00061	-1113.55920	2808.17822	1664.68604	-1140.70276	2356.46924	1667.86682	-1171.18958	1906.06262	1668.76355	-1198.96448	1404.26624	1669.13647	-1226.75012	952.63208	1668.32751	-1244.52209	506.40140	1667.65295	
124	0.615	-576.49445	2754.30640	1664.19214	-603.62329	2305.08789	1653.44421	-637.41187	1851.40283	1646.81311	-660.78735	1349.63135	1646.73303	-689.74615	903.03583	1653.56067	-713.83331	455.36267	1663.99268	-1113.53601	2808.15649	1664.69727	-1140.70483	2356.49878	1667.86682	-1171.19543	1906.04639	1668.75574	-1198.96655	1404.29309	1669.14722	-1226.75354	952.64941	1668.32983	-1244.53149	506.39474	1667.64758	
125	0.620	-576.47406	2754.31348	1664.20044	-603.62335	2305.05347	1653.43665	-637.40967	1851.39539	1646.80029	-660.75903	1349.63733	1646.73120	-689.73865	903.03442	1653.55640	-713.83789	455.33313	1663.98474	-1113.55286	2808.16016	1664.68811	-1140.70166	2356.48071	1667.88599	-1171.16089	1906.04614	1668.76697	-1198.97571	1404.24097	1669.16638	-1226.73816	952.65845	1668.31995	-1244.52185	506.42349	1667.64758	
126	0.625	-576.49335	2754.30054	1664.18860	-603.60803	2305.07324	1653.45776	-637.39844	1851.42017	1646.81042	-660.77954	1349.62402	1646.73206	-689.72778	903.01910	1653.55420	-713.84674	455.37762	1663.99121	-1113.53345	2808.17773	1664.68701	-1140.69250	2356.48877	1667.86841	-1171.18408	1906.07068	1668.77124	-1198.96399	1404.28735	1669.14917	-1226.76123	952.63727	1668.32544	-1244.53442	506.40323	1667.65784	
127	0.630	-576.48499	2754.30103	1664.18640	-603.62598	2305.06250	1653.43994	-637.38098	1851.37146	1646.80054	-660.78967	1349.64343	1646.73730	-689.71143	903.03369	1653.55823	-713.82635	455.34009	1663.98767	-1113.51941	2808.15894	1664.69849	-1140.71594	2356.49780	1667.88428	-1171.18127	1906.06274	1668.76343	-1198.95740	1404.28247	1669.16028	-1226.74548	952.64105	1668.31396	-1244.50916	506.38730	1667.63879	
128	0.635	-576.48224	2754.30615	1664.18005	-603.61377	2305.06641	1653.43152	-637.40125	1851.41040	1646.81177	-660.77704	1349.63501	1646.72827	-689.72955	903.02948	1653.54846	-713.83185	455.35004	1663.98877	-1113.53491	2808.14868	1664.68726	-1140.69543	2356.48853	1667.86292	-1171.18738	1906.05786	1668.75110	-1198.95984	1404.30273	1669.13464	-1226.75269	952.64008	1668.30823	-1244.52783	506.40225	1667.63953	
129	0.640	-576.48309	2754.30640	1664.19519	-603.63599	2305.04761	1653.43408	-637.42419	1851.39221	1646.82385	-660.78485	1349.62280	1646.73242	-689.73260	903.02972	1653.54456	-713.84741	455.34131	1663.98230	-1113.54675	2808.15454	1664.69128	-1140.70081	2356.49609	1667.86218	-1171.18433	1906.07166	1668.75745	-1198.96631	1404.26855	1669.14392	-1226.74670	952.66608	1668.31042	-1244.53149	506.38983	1667.63806	
130	0.645	-576.48138	2754.29224	1664.19165	-603.62299	2305.07544	1653.45972	-637.41083	1851.35229	1646.82056	-660.76410	1349.64954	1646.72778	-689.73492	903.04083	1653.55688	-713.80975	455.33115	1663.98694	-1113.51147	2808.14917	1664.68298	-1140.70886	2356.48389	1667.86243	-1171.17712	1906.03528	1668.76428	-1198.97217	1404.27393	1669.14807	-1226.74976	952.65302	1668.32788	-1244.51428	506.38998	1667.65552	
131	0.650	-576.48468	2754.31616	1664.19019	-603.61517	2305.07666	1653.44250	-637.42297	1851.40088	1646.79053	-660.77600	1349.64246	1646.72803	-689.73364	903.03040	1653.55298	-713.83978	455.34030	1663.99731	-1113.55981	2808.15039	1664.70129	-1140.70764	2356.49951	1667.87891	-1171.18115	1906.09082	1668.76270	-1198.97913	1404.28247	1669.13440	-1226.75000	952.65955	1668.32007	-1244.52063	506.39832	1667.66333	
